{"title":"Marc_Almond","uid":4030435,"size":4616973137,"categoryP":"video","categoryS":"music_videos","magnet":"?xt=urn:btih:ee0d497ca4b8e4d3b9d8da922a5d5014dde2ec94&amp;dn=Marc_Almond&amp;tr=udp%3A%2F%2Ftracker.openbittorrent.com%3A80&amp;tr=udp%3A%2F%2Fopen.demonii.com%3A1337&amp;tr=udp%3A%2F%2Ftracker.coppersurfer.tk%3A6969&amp;tr=udp%3A%2F%2Fexodus.desync.com%3A6969","seeders":0,"leechers":1,"uploader":"chemiko","files":89,"time":1203152034,"description":"as i found very few marc almond torrent dl, i decided to share this dvd and two cd&amp;#039;s\nLive At The lokerse Feeston 2000\n\nLive concert dvd .iso + concert audio cd 224 kbps\n\nplus Tenement Symphony audio cd 224 kbps\n\nrar files have 3% recovery record.\n\ntracklists:\nREM DATE 2000\nREM DISCID C60FB510\nREM COMMENT &quot;ExactAudioCopy v0.95b3&quot;\nPERFORMER &quot;Marc Almond&quot;\nTITLE &quot;Live At The lokerse Feeston 2000&quot;\nFILE &quot;One Big Soul.wav&quot; WAVE\n  TRACK 01 AUDIO\n    TITLE &quot;One Big Soul&quot;\n    PERFORMER &quot;Marc Almond&quot;\n    INDEX 01 00:00:00\n  TRACK 02 AUDIO\n    TITLE &quot;Black Kiss&quot;\n    PERFORMER &quot;Marc Almond&quot;\n    INDEX 00 04:36:45\nFILE &quot;Black Kiss.wav&quot; WAVE\n    INDEX 01 00:00:00\n  TRACK 03 AUDIO\n    TITLE &quot;My Love&quot;\n    PERFORMER &quot;Marc Almond&quot;\n    INDEX 00 04:37:02\nFILE &quot;My Love.wav&quot; WAVE\n    INDEX 01 00:00:00\n  TRACK 04 AUDIO\n    TITLE &quot;Open All Night&quot;\n    PERFORMER &quot;Marc Almond&quot;\n    INDEX 00 03:46:00\nFILE &quot;Open All Night.wav&quot; WAVE\n    INDEX 01 00:00:00\n  TRACK 05 AUDIO\n    TITLE &quot;My Hand Over My Heart&quot;\n    PERFORMER &quot;Marc Almond&quot;\n    INDEX 00 05:43:18\nFILE &quot;My Hand Over My Heart.wav&quot; WAVE\n    INDEX 01 00:00:00\n  TRACK 06 AUDIO\n    TITLE &quot;Love To Die For&quot;\n    PERFORMER &quot;Marc Almond&quot;\n    INDEX 00 04:26:45\nFILE &quot;Love To Die For.wav&quot; WAVE\n    INDEX 01 00:00:00\n  TRACK 07 AUDIO\n    TITLE &quot;Child Star&quot;\n    PERFORMER &quot;Marc Almond&quot;\n    INDEX 00 02:58:00\nFILE &quot;Child Star.wav&quot; WAVE\n    INDEX 01 00:00:00\n  TRACK 08 AUDIO\n    TITLE &quot;Something&amp;#039;s Gotten Hold Of My Heart&quot;\n    PERFORMER &quot;Marc Almond&quot;\n    INDEX 00 02:59:07\nFILE &quot;Something&amp;#039;s Gotten Hold Of My Heart.wav&quot; WAVE\n    INDEX 01 00:00:00\n  TRACK 09 AUDIO\n    TITLE &quot;The Days Of Pearly Spencer&quot;\n    PERFORMER &quot;Marc Almond&quot;\n    INDEX 00 04:28:32\nFILE &quot;The Days Of Pearly Spencer.wav&quot; WAVE\n    INDEX 01 00:00:00\n  TRACK 10 AUDIO\n    TITLE &quot;A Lover Spurned&quot;\n    PERFORMER &quot;Marc Almond&quot;\n    INDEX 00 02:59:07\nFILE &quot;A Lover Spurned.wav&quot; WAVE\n    INDEX 01 00:00:00\n  TRACK 11 AUDIO\n    TITLE &quot;The Idol&quot;\n    PERFORMER &quot;Marc Almond&quot;\n    INDEX 00 04:55:52\nFILE &quot;The Idol.wav&quot; WAVE\n    INDEX 01 00:00:00\n  TRACK 12 AUDIO\n    TITLE &quot;Jacky&quot;\n    PERFORMER &quot;Marc Almond&quot;\n    INDEX 00 03:40:34\nFILE &quot;Jacky.wav&quot; WAVE\n    INDEX 01 00:00:00\n  TRACK 13 AUDIO\n    TITLE &quot;Tears Run Rings&quot;\n    PERFORMER &quot;Marc Almond&quot;\n    INDEX 00 04:29:59\nFILE &quot;Tears Run Rings.wav&quot; WAVE\n    INDEX 01 00:00:00\n  TRACK 14 AUDIO\n    TITLE &quot;Bedsitter&quot;\n    PERFORMER &quot;Marc Almond&quot;\n    INDEX 00 05:39:41\nFILE &quot;Bedsitter.wav&quot; WAVE\n    INDEX 01 00:00:00\n  TRACK 15 AUDIO\n    TITLE &quot;Tainted Love&quot;\n    PERFORMER &quot;Marc Almond&quot;\n    INDEX 00 03:29:32\nFILE &quot;Tainted Love.wav&quot; WAVE\n    INDEX 01 00:00:00\n  TRACK 16 AUDIO\n    TITLE &quot;Say Hello Wave Goodbye&quot;\n    PERFORMER &quot;Marc Almond&quot;\n    INDEX 00 02:56:50\nFILE &quot;Say Hello Wave Goodbye.wav&quot; WAVE\n    INDEX 01 00:00:00\n\n---------------------------------------------\n\nREM GENRE Pop\nREM DATE 1991\nREM DISCID 900B3E0B\nREM COMMENT &quot;ExactAudioCopy v0.95b3&quot;\nPERFORMER &quot;Marc Almond&quot;\nTITLE &quot;Tenement Symphony&quot;\nFILE &quot;Meet me in my Dream.wav&quot; WAVE\n  TRACK 01 AUDIO\n    TITLE &quot;Meet me in my Dream&quot;\n    PERFORMER &quot;Marc Almond&quot;\n    INDEX 01 00:00:00\n  TRACK 02 AUDIO\n    TITLE &quot;Beautiful brutal Thing&quot;\n    PERFORMER &quot;Marc Almond&quot;\n    INDEX 00 04:24:36\nFILE &quot;Beautiful brutal Thing.wav&quot; WAVE\n    INDEX 01 00:00:00\n  TRACK 03 AUDIO\n    TITLE &quot;I&amp;#039;ve Never Seen Your Face&quot;\n    PERFORMER &quot;Marc Almond&quot;\n    INDEX 00 05:02:34\nFILE &quot;I&amp;#039;ve Never Seen Your Face.wav&quot; WAVE\n    INDEX 01 00:00:00\n  TRACK 04 AUDIO\n    TITLE &quot;Vaudeville and Burlesque&quot;\n    PERFORMER &quot;Marc Almond&quot;\n    INDEX 00 05:01:74\nFILE &quot;Vaudeville and Burlesque.wav&quot; WAVE\n    INDEX 01 00:00:00\n  TRACK 05 AUDIO\n    TITLE &quot;Champagne&quot;\n    PERFORMER &quot;Marc Almond&quot;\n    INDEX 00 06:50:74\nFILE &quot;Champagne.wav&quot; WAVE\n    INDEX 01 00:00:00\n  TRACK 06 AUDIO\n    TITLE &quot;Prelude&quot;\n    PERFORMER &quot;Marc Almond&quot;\n    INDEX 00 05:47:64\nFILE &quot;Prelude.wav&quot; WAVE\n    INDEX 01 00:00:00\n  TRACK 07 AUDIO\n    TITLE &quot;Jacky&quot;\n    PERFORMER &quot;Marc Almond&quot;\n    INDEX 00 00:23:02\nFILE &quot;Jacky.wav&quot; WAVE\n    INDEX 01 00:00:00\n  TRACK 08 AUDIO\n    TITLE &quot;What Is Love?&quot;\n    PERFORMER &quot;Marc Almond&quot;\n    INDEX 00 04:48:74\nFILE &quot;What Is Love .wav&quot; WAVE\n    INDEX 01 00:00:00\n  TRACK 09 AUDIO\n    TITLE &quot;Trois Chansons de Bilitis - Extract&quot;\n    PERFORMER &quot;Marc Almond&quot;\n    INDEX 00 05:04:59\nFILE &quot;Trois Chansons de Bilitis - Extract.wav&quot; WAVE\n    INDEX 01 00:00:00\nFILE &quot;The Days of Pearly Spencer.wav&quot; WAVE\n  TRACK 10 AUDIO\n    TITLE &quot;The Days of Pearly Spencer&quot;\n    PERFORMER &quot;Marc Almond&quot;\n    INDEX 01 00:00:00\n  TRACK 11 AUDIO\n    TITLE &quot;My Hand Over My Heart&quot;\n    PERFORMER &quot;Marc Almond&quot;\n    INDEX 00 04:22:52\nFILE &quot;My Hand Over My Heart.wav&quot; WAVE\n    INDEX 01 00:00:00\n","torrent":{"xt":"urn:btih:ee0d497ca4b8e4d3b9d8da922a5d5014dde2ec94","amp;dn":"Marc_Almond","amp;tr":["udp%3A%2F%2Ftracker.openbittorrent.com%3A80","udp%3A%2F%2Fopen.demonii.com%3A1337","udp%3A%2F%2Ftracker.coppersurfer.tk%3A6969","udp%3A%2F%2Fexodus.desync.com%3A6969"],"infoHash":"ee0d497ca4b8e4d3b9d8da922a5d5014dde2ec94","infoHashBuffer":{"type":"Buffer","data":[238,13,73,124,164,184,228,211,185,216,218,146,42,93,80,20,221,226,236,148]},"announce":[],"urlList":[]}}